<svg width="1359" height="489" viewBox="0 0 1359 489" fill="none" xmlns="http://www.w3.org/2000/svg">
<g filter="url(#filter0_f_14_291)">
<path d="M97.6921 396.968C77.4974 396.968 61.4734 393.346 49.62 386.102C37.9861 378.639 29.7546 368.322 24.9254 355.152C20.0962 341.762 17.6817 326.067 17.6817 308.067V211.923C17.6817 193.484 20.0962 177.68 24.9254 164.509C29.7546 151.119 37.9861 140.803 49.62 133.559C61.4734 126.315 77.4974 122.693 97.6921 122.693C117.448 122.693 132.813 125.986 143.789 132.571C154.984 138.937 162.886 147.937 167.495 159.57C172.105 171.204 174.41 184.594 174.41 199.74V222.789H116.789V196.118C116.789 190.85 116.46 185.802 115.801 180.972C115.362 176.143 113.826 172.192 111.192 169.119C108.558 165.826 104.058 164.18 97.6921 164.18C91.5459 164.18 86.9363 165.826 83.8632 169.119C81.0096 172.412 79.1437 176.582 78.2657 181.631C77.6072 186.46 77.2779 191.618 77.2779 197.106V322.555C77.2779 328.481 77.7169 333.969 78.595 339.018C79.6925 343.847 81.6681 347.798 84.5217 350.871C87.5948 353.725 91.9849 355.152 97.6921 355.152C103.838 355.152 108.228 353.615 110.863 350.542C113.497 347.249 115.143 343.079 115.801 338.03C116.46 332.981 116.789 327.823 116.789 322.555V294.567H174.41V317.616C174.41 332.762 172.105 346.371 167.495 358.444C163.105 370.298 155.313 379.736 144.118 386.761C133.143 393.565 117.667 396.968 97.6921 396.968ZM203.871 393.017V126.315H262.809V393.017H203.871ZM299.285 393.017V126.315H340.772L395.429 254.727V126.315H444.16V393.017H404.319L349.662 254.727V393.017H299.285ZM480.559 393.017V126.315H600.41V166.485H539.496V232.666H585.922V273.495H539.496V353.176H601.068V393.017H480.559Z" fill="url(#paint0_linear_14_291)"/>
</g>
<g filter="url(#filter1_f_14_291)">
<mask id="path-2-outside-1_14_291" maskUnits="userSpaceOnUse" x="623.4" y="124.017" width="719" height="271" fill="black">
<rect fill="white" x="623.4" y="124.017" width="719" height="271"/>
<path d="M625.156 393.017V126.315H692.655C715.922 126.315 734.032 129.278 746.983 135.205C759.934 140.912 769.043 150.022 774.311 162.534C779.58 174.826 782.214 190.85 782.214 210.606V307.409C782.214 327.384 779.58 343.737 774.311 356.469C769.043 368.981 759.934 378.2 746.983 384.127C734.251 390.053 716.361 393.017 693.313 393.017H625.156ZM684.094 352.188H693.313C702.313 352.188 708.788 350.871 712.74 348.237C716.691 345.603 719.105 341.652 719.983 336.384C721.081 331.115 721.63 324.53 721.63 316.628V200.399C721.63 192.497 720.971 186.131 719.654 181.302C718.556 176.472 716.032 172.96 712.081 170.765C708.13 168.57 701.764 167.473 692.984 167.473H684.094V352.188ZM797.769 393.017L848.146 126.315H915.315L965.033 393.017H910.705L901.815 336.713H862.633L853.414 393.017H797.769ZM867.901 301.482H896.218L882.06 197.435L867.901 301.482ZM988.997 393.017V126.315H1047.94V393.017H988.997ZM1084.41 393.017V126.315H1143.35V353.176H1204.59V393.017H1084.41ZM1233.03 393.017V284.031L1182.33 126.315H1237.97L1263.32 210.606L1286.04 126.315H1339.38L1289.66 284.031V393.017H1233.03Z"/>
</mask>
<path d="M625.156 393.017H623.457V394.715H625.156V393.017ZM625.156 126.315V124.616H623.457V126.315H625.156ZM746.983 135.205L746.276 136.75L746.287 136.755L746.298 136.759L746.983 135.205ZM774.311 162.534L772.746 163.193L772.75 163.203L774.311 162.534ZM774.311 356.469L775.877 357.128L775.881 357.118L774.311 356.469ZM746.983 384.127L746.276 382.582L746.266 382.587L746.983 384.127ZM684.094 352.188H682.395V353.887H684.094V352.188ZM712.74 348.237L711.797 346.824H711.797L712.74 348.237ZM719.983 336.384L718.32 336.037L718.313 336.071L718.308 336.104L719.983 336.384ZM719.654 181.302L717.998 181.678L718.006 181.714L718.015 181.749L719.654 181.302ZM712.081 170.765L711.256 172.25V172.25L712.081 170.765ZM684.094 167.473V165.774H682.395V167.473H684.094ZM626.855 393.017V126.315H623.457V393.017H626.855ZM625.156 128.014H692.655V124.616H625.156V128.014ZM692.655 128.014C715.814 128.014 733.644 130.969 746.276 136.75L747.69 133.661C734.42 127.588 716.03 124.616 692.655 124.616V128.014ZM746.298 136.759C758.87 142.3 767.654 151.099 772.746 163.193L775.877 161.875C770.433 148.944 760.997 139.525 747.668 133.651L746.298 136.759ZM772.75 163.203C777.895 175.208 780.515 190.98 780.515 210.606H783.912C783.912 190.72 781.264 174.444 775.873 161.865L772.75 163.203ZM780.515 210.606V307.409H783.912V210.606H780.515ZM780.515 307.409C780.515 327.253 777.896 343.364 772.742 355.819L775.881 357.118C781.264 344.11 783.912 327.515 783.912 307.409H780.515ZM772.746 355.809C767.652 367.908 758.861 376.823 746.276 382.582L747.69 385.671C761.007 379.577 770.435 370.053 775.877 357.128L772.746 355.809ZM746.266 382.587C733.858 388.363 716.253 391.318 693.313 391.318V394.715C716.47 394.715 734.644 391.744 747.7 385.666L746.266 382.587ZM693.313 391.318H625.156V394.715H693.313V391.318ZM684.094 353.887H693.313V350.49H684.094V353.887ZM693.313 353.887C702.394 353.887 709.296 352.574 713.682 349.65L711.797 346.824C708.28 349.168 702.232 350.49 693.313 350.49V353.887ZM713.682 349.65C718.074 346.722 720.714 342.331 721.659 336.663L718.308 336.104C717.496 340.973 715.307 344.484 711.797 346.824L713.682 349.65ZM721.646 336.73C722.776 331.309 723.328 324.598 723.328 316.628H719.931C719.931 324.463 719.386 330.922 718.32 336.037L721.646 336.73ZM723.328 316.628V200.399H719.931V316.628H723.328ZM723.328 200.399C723.328 192.422 722.666 185.888 721.293 180.855L718.015 181.749C719.277 186.373 719.931 192.571 719.931 200.399H723.328ZM721.31 180.925C720.117 175.676 717.322 171.734 712.906 169.28L711.256 172.25C714.742 174.187 716.996 177.269 717.998 181.678L721.31 180.925ZM712.906 169.28C708.56 166.866 701.828 165.774 692.984 165.774V169.171C701.7 169.171 707.699 170.274 711.256 172.25L712.906 169.28ZM692.984 165.774H684.094V169.171H692.984V165.774ZM682.395 167.473V352.188H685.792V167.473H682.395ZM797.769 393.017L796.1 392.701L795.719 394.715H797.769V393.017ZM848.146 126.315V124.616H846.738L846.477 126L848.146 126.315ZM915.315 126.315L916.985 126.004L916.726 124.616H915.315V126.315ZM965.033 393.017V394.715H967.078L966.703 392.705L965.033 393.017ZM910.705 393.017L909.027 393.282L909.254 394.715H910.705V393.017ZM901.815 336.713L903.493 336.448L903.267 335.014H901.815V336.713ZM862.633 336.713V335.014H861.19L860.957 336.438L862.633 336.713ZM853.414 393.017V394.715H854.857L855.09 393.291L853.414 393.017ZM867.901 301.482L866.218 301.253L865.956 303.181H867.901V301.482ZM896.218 301.482V303.181H898.163L897.901 301.253L896.218 301.482ZM882.06 197.435L883.743 197.206H880.376L882.06 197.435ZM799.438 393.332L849.815 126.63L846.477 126L796.1 392.701L799.438 393.332ZM848.146 128.014H915.315V124.616H848.146V128.014ZM913.645 126.626L963.364 393.328L966.703 392.705L916.985 126.004L913.645 126.626ZM965.033 391.318H910.705V394.715H965.033V391.318ZM912.383 392.752L903.493 336.448L900.137 336.978L909.027 393.282L912.383 392.752ZM901.815 335.014H862.633V338.412H901.815V335.014ZM860.957 336.438L851.738 392.742L855.09 393.291L864.309 336.987L860.957 336.438ZM853.414 391.318H797.769V394.715H853.414V391.318ZM867.901 303.181H896.218V299.783H867.901V303.181ZM897.901 301.253L883.743 197.206L880.376 197.664L894.535 301.711L897.901 301.253ZM880.376 197.206L866.218 301.253L869.584 301.711L883.743 197.664L880.376 197.206ZM988.997 393.017H987.299V394.715H988.997V393.017ZM988.997 126.315V124.616H987.299V126.315H988.997ZM1047.94 126.315H1049.63V124.616H1047.94V126.315ZM1047.94 393.017V394.715H1049.63V393.017H1047.94ZM990.696 393.017V126.315H987.299V393.017H990.696ZM988.997 128.014H1047.94V124.616H988.997V128.014ZM1046.24 126.315V393.017H1049.63V126.315H1046.24ZM1047.94 391.318H988.997V394.715H1047.94V391.318ZM1084.41 393.017H1082.71V394.715H1084.41V393.017ZM1084.41 126.315V124.616H1082.71V126.315H1084.41ZM1143.35 126.315H1145.05V124.616H1143.35V126.315ZM1143.35 353.176H1141.65V354.875H1143.35V353.176ZM1204.59 353.176H1206.29V351.477H1204.59V353.176ZM1204.59 393.017V394.715H1206.29V393.017H1204.59ZM1086.11 393.017V126.315H1082.71V393.017H1086.11ZM1084.41 128.014H1143.35V124.616H1084.41V128.014ZM1141.65 126.315V353.176H1145.05V126.315H1141.65ZM1143.35 354.875H1204.59V351.477H1143.35V354.875ZM1202.89 353.176V393.017H1206.29V353.176H1202.89ZM1204.59 391.318H1084.41V394.715H1204.59V391.318ZM1233.03 393.017H1231.33V394.715H1233.03V393.017ZM1233.03 284.031H1234.73V283.765L1234.65 283.511L1233.03 284.031ZM1182.33 126.315V124.616H1179.99L1180.71 126.835L1182.33 126.315ZM1237.97 126.315L1239.6 125.826L1239.23 124.616H1237.97V126.315ZM1263.32 210.606L1261.7 211.095L1263.41 216.801L1264.96 211.048L1263.32 210.606ZM1286.04 126.315V124.616H1284.74L1284.4 125.873L1286.04 126.315ZM1339.38 126.315L1341 126.826L1341.7 124.616H1339.38V126.315ZM1289.66 284.031L1288.04 283.52L1287.97 283.77V284.031H1289.66ZM1289.66 393.017V394.715H1291.36V393.017H1289.66ZM1234.73 393.017V284.031H1231.33V393.017H1234.73ZM1234.65 283.511L1183.94 125.795L1180.71 126.835L1231.41 284.551L1234.65 283.511ZM1182.33 128.014H1237.97V124.616H1182.33V128.014ZM1236.34 126.804L1261.7 211.095L1264.95 210.117L1239.6 125.826L1236.34 126.804ZM1264.96 211.048L1287.68 126.757L1284.4 125.873L1261.68 210.164L1264.96 211.048ZM1286.04 128.014H1339.38V124.616H1286.04V128.014ZM1337.76 125.804L1288.04 283.52L1291.28 284.542L1341 126.826L1337.76 125.804ZM1287.97 284.031V393.017H1291.36V284.031H1287.97ZM1289.66 391.318H1233.03V394.715H1289.66V391.318Z" fill="white" mask="url(#path-2-outside-1_14_291)"/>
</g>
<defs>
<filter id="filter0_f_14_291" x="0.695633" y="105.707" width="617.359" height="308.247" filterUnits="userSpaceOnUse" color-interpolation-filters="sRGB">
<feFlood flood-opacity="0" result="BackgroundImageFix"/>
<feBlend mode="normal" in="SourceGraphic" in2="BackgroundImageFix" result="shape"/>
<feGaussianBlur stdDeviation="8.493" result="effect1_foregroundBlur_14_291"/>
</filter>
<filter id="filter1_f_14_291" x="606.472" y="107.63" width="752.214" height="304.071" filterUnits="userSpaceOnUse" color-interpolation-filters="sRGB">
<feFlood flood-opacity="0" result="BackgroundImageFix"/>
<feBlend mode="normal" in="SourceGraphic" in2="BackgroundImageFix" result="shape"/>
<feGaussianBlur stdDeviation="8.493" result="effect1_foregroundBlur_14_291"/>
</filter>
<linearGradient id="paint0_linear_14_291" x1="305.048" y1="0.0166016" x2="305.048" y2="488.017" gradientUnits="userSpaceOnUse">
<stop stop-color="#FF4915"/>
<stop offset="0.8"/>
</linearGradient>
</defs>
</svg>
