<svg width="38" height="39" viewBox="0 0 38 39" fill="none" xmlns="http://www.w3.org/2000/svg">
<path d="M27.3715 29.4442H21.2982C20.2053 29.4442 19.3193 28.3762 19.3193 27.0588L18.0332 17.0144H30.4436L29.3505 27.0588C29.3504 28.3762 28.4645 29.4442 27.3715 29.4442Z" fill="white"/>
<path d="M30.9381 16.8362H17.5383C17.296 16.8362 17.0996 16.5994 17.0996 16.3074V15.2275C17.0996 14.9355 17.296 14.6987 17.5383 14.6987H21.3806L21.0723 9.73728L22.4956 9.71069L22.8803 14.6987H30.9381C31.1804 14.6987 31.3768 14.9354 31.3768 15.2275V16.3074C31.3768 16.5994 31.1804 16.8362 30.9381 16.8362Z" fill="white"/>
<path d="M17.9918 23.6441H7.89453V22.9076C7.89453 21.6058 8.94982 20.5505 10.2516 20.5505H15.6347C16.9365 20.5505 17.9918 21.6058 17.9918 22.9076V23.6441Z" fill="white"/>
<path d="M17.9918 26.0627H7.89453V26.7992C7.89453 28.101 8.94982 29.1563 10.2516 29.1563H15.6347C16.9365 29.1563 17.9918 28.101 17.9918 26.7992V26.0627Z" fill="white"/>
<path d="M17.926 25.8492H7.96098C7.38871 25.8492 6.9248 25.3853 6.9248 24.813C6.9248 24.2408 7.38871 23.7769 7.96098 23.7769H17.926C18.4982 23.7769 18.9621 24.2408 18.9621 24.813C18.9621 25.3853 18.4982 25.8492 17.926 25.8492Z" fill="white"/>
<path d="M35.023 9.87736C34.6307 9.24826 34.2089 8.64134 33.7426 8.06409C30.3454 3.74913 25.0609 0.973633 19.1473 0.973633C8.88911 0.973633 0.547852 9.32224 0.547852 19.5805C0.547852 23.6068 1.83567 27.337 4.01906 30.3864C4.44835 30.9859 4.91463 31.5632 5.41793 32.1109C8.81513 35.8411 13.7148 38.1799 19.1473 38.1799C29.4055 38.1799 37.7542 29.8387 37.7542 19.5805C37.7541 16.0278 36.7549 12.7046 35.023 9.87736ZM5.79534 29.0467C3.88577 26.3748 2.76819 23.1034 2.76819 19.5805C2.76819 10.5435 10.1177 3.19401 19.1472 3.19401C24.3356 3.19401 28.9688 5.61423 31.9737 9.38887L5.79534 29.0467ZM19.1472 35.9595C14.44 35.9595 10.1917 33.9611 7.20156 30.7712L33.2319 11.217C34.6974 13.6668 35.5337 16.5311 35.5337 19.5805C35.5337 28.61 28.1842 35.9595 19.1472 35.9595Z" fill="#FF6A00"/>
</svg>
