<svg width="38" height="42" viewBox="0 0 38 42" fill="none" xmlns="http://www.w3.org/2000/svg">
<path d="M27.7169 31.776C27.4398 31.6136 27.1237 31.5279 26.8024 31.5279C26.1594 31.5279 25.5581 31.8729 25.2343 32.4296C23.2162 35.8926 19.4747 38.0438 15.4703 38.0438C9.24339 38.0438 4.17748 32.9778 4.17748 26.7509C4.17748 22.6343 6.42002 18.8409 10.0295 16.8526C10.454 16.6183 10.762 16.2328 10.8969 15.7679C11.0319 15.3021 10.9776 14.8114 10.7427 14.3866C10.4233 13.8076 9.81398 13.4485 9.1529 13.4485C8.84926 13.4485 8.54798 13.5258 8.27822 13.6732C3.50976 16.3008 0.547852 21.3115 0.547852 26.7514C0.547852 34.9805 7.24181 41.6742 15.4705 41.6742C20.7612 41.6742 25.7042 38.8325 28.3703 34.2581C28.6149 33.8386 28.6812 33.3501 28.5582 32.881C28.4341 32.4117 28.134 32.0189 27.7169 31.776ZM27.3247 33.6476C24.8741 37.8516 20.3314 40.4635 15.4704 40.4635C7.90896 40.4635 1.75769 34.3122 1.75769 26.7506C1.75769 21.7526 4.48 17.1468 8.86198 14.7324C9.15414 14.5722 9.52182 14.678 9.68343 14.9707C9.84505 15.2631 9.73779 15.6316 9.44507 15.7925C5.44922 17.9943 2.96697 22.1933 2.96697 26.7506C2.96697 33.6451 8.57567 39.2535 15.4698 39.2535C19.9026 39.2535 24.0445 36.8721 26.2795 33.039C26.4479 32.7501 26.8176 32.6521 27.1061 32.8209C27.3955 32.9882 27.4929 33.3586 27.3247 33.6476Z" fill="url(#paint0_linear_14_324)"/>
<path d="M37.2762 32.1798C36.9331 31.8052 36.4462 31.5907 35.9387 31.5907C35.4832 31.5907 35.0472 31.7605 34.7117 32.0688L33.8178 32.8885L28.1563 25.8683L28.0759 25.8139C28.0169 25.7625 27.9637 25.7236 27.9229 25.6935C27.8337 25.6267 27.7434 25.5676 27.6434 25.5205C27.549 25.4755 27.4509 25.4426 27.3357 25.413C27.289 25.3999 27.217 25.3798 27.1282 25.3657L27.0385 25.3401H17.2853V17.0782H26.8023C27.803 17.0782 28.617 16.2639 28.617 15.2635C28.617 14.2626 27.803 13.4486 26.8023 13.4486H17.2853V11.0225C17.2853 10.604 17.1373 10.2223 16.8978 9.91464C18.7729 9.30972 20.1341 7.5501 20.1341 5.47672C20.134 2.90567 18.042 0.813721 15.4703 0.813721C12.8987 0.813721 10.8066 2.90567 10.8066 5.47683C10.8066 7.5501 12.1679 9.30983 14.0434 9.91475C13.8039 10.2223 13.6556 10.6035 13.6556 11.0226V27.1552C13.6556 28.1554 14.4699 28.9702 15.4703 28.9702H25.9963L32.1453 36.5955L32.1601 36.6273L32.2327 36.707L32.3291 36.8299L32.3946 36.8708C32.4819 36.9476 32.5617 36.9994 32.6167 37.0337L32.7284 37.1212L32.8742 37.1872C33.113 37.2947 33.3636 37.3491 33.62 37.3491C33.8279 37.3491 34.0359 37.3125 34.2497 37.2351C34.3413 37.2014 34.4152 37.1611 34.4636 37.1334C34.5132 37.1091 34.5888 37.0702 34.6781 37.0077L34.726 36.9828L34.8217 36.8955L34.9037 36.8256L34.916 36.8085L37.1657 34.745C37.5232 34.4171 37.7316 33.9698 37.7524 33.4855C37.7731 33.0008 37.6036 32.5367 37.2762 32.1798ZM12.0167 5.4774C12.0167 3.57362 13.566 2.02423 15.4704 2.02423C17.3749 2.02423 18.9242 3.57362 18.9242 5.4774C18.9242 7.38129 17.3749 8.93056 15.4704 8.93056C13.566 8.93056 12.0167 7.38118 12.0167 5.4774ZM36.3481 33.8516L34.0287 35.9795C34.0228 35.9845 34.0164 35.9856 34.0111 35.9903C34.0064 35.9951 34.0039 36.0009 33.9993 36.0051C33.9657 36.0322 33.9262 36.047 33.8894 36.0672C33.8674 36.0778 33.8487 36.093 33.8267 36.1021C33.7594 36.1264 33.6896 36.1405 33.62 36.1405C33.5347 36.1405 33.4509 36.1204 33.3717 36.0849C33.3459 36.0732 33.3257 36.0506 33.3021 36.0352C33.2577 36.007 33.2112 35.9847 33.1744 35.9443C33.1698 35.9384 33.168 35.9315 33.1632 35.9262C33.1592 35.9207 33.1532 35.9194 33.1495 35.9148L26.5753 27.7603H15.4703C15.1366 27.7603 14.8654 27.489 14.8654 27.1552V11.0225C14.8654 10.6884 15.1366 10.4175 15.4703 10.4175C15.8045 10.4175 16.0753 10.6884 16.0753 11.0225V14.6584H26.8023C27.1361 14.6584 27.4071 14.9293 27.4071 15.2634C27.4071 15.5972 27.1361 15.8683 26.8023 15.8683H16.0753V26.55H26.8643C26.8742 26.55 26.8839 26.5553 26.8945 26.5565C26.9382 26.5577 26.9795 26.5702 27.0233 26.5825C27.057 26.5918 27.0912 26.5979 27.1225 26.6131C27.1556 26.6286 27.1845 26.6521 27.2148 26.6751C27.249 26.7006 27.2821 26.7243 27.3109 26.7555C27.3179 26.7634 27.3281 26.767 27.3352 26.7757L33.6855 34.6525L35.53 32.9607C35.7764 32.7349 36.1585 32.7509 36.3849 32.9978C36.6105 33.2431 36.5938 33.6259 36.3481 33.8516Z" fill="url(#paint1_linear_14_324)"/>
<defs>
<linearGradient id="paint0_linear_14_324" x1="14.5832" y1="13.4485" x2="14.5832" y2="41.6742" gradientUnits="userSpaceOnUse">
<stop stop-color="#00FF11"/>
<stop offset="1" stop-color="#009940"/>
</linearGradient>
<linearGradient id="paint1_linear_14_324" x1="24.2804" y1="0.813721" x2="24.2804" y2="37.3491" gradientUnits="userSpaceOnUse">
<stop stop-color="#00FF11"/>
<stop offset="1" stop-color="#009940"/>
</linearGradient>
</defs>
</svg>
