<svg width="21" height="21" viewBox="0 0 21 21" fill="none" xmlns="http://www.w3.org/2000/svg">
<path d="M20.1359 14.6564C20.1359 18.2631 17.9857 20.4132 14.379 20.4132H13.1999C12.6549 20.4132 12.2091 19.9673 12.2091 19.4224V13.7052C12.2091 13.4376 12.427 13.2097 12.6946 13.2097L14.4385 13.18C14.5772 13.1701 14.6961 13.071 14.7258 12.9323L15.0726 11.0398C15.1024 10.8614 14.9636 10.693 14.7754 10.693L12.6648 10.7227C12.3874 10.7227 12.1694 10.5047 12.1595 10.2372L12.1199 7.80958C12.1199 7.65105 12.2487 7.51234 12.4171 7.51234L14.7952 7.4727C14.9636 7.4727 15.0924 7.3439 15.0924 7.17545L15.0528 4.79739C15.0528 4.62894 14.924 4.50015 14.7555 4.50015L12.0802 4.53979C10.4354 4.56951 9.12752 5.91706 9.15725 7.56187L9.20678 10.2867C9.21669 10.5641 8.99871 10.7821 8.72127 10.7921L7.53224 10.8119C7.36379 10.8119 7.235 10.9407 7.235 11.1091L7.26472 12.9917C7.26472 13.1602 7.39352 13.289 7.56196 13.289L8.751 13.2692C9.02843 13.2692 9.2464 13.4872 9.25631 13.7547L9.34548 19.4025C9.35539 19.9574 8.90951 20.4132 8.35463 20.4132H6.07569C2.46899 20.4132 0.318848 18.263 0.318848 14.6464V6.35303C0.318848 2.74633 2.46899 0.596191 6.07569 0.596191H14.379C17.9857 0.596191 20.1359 2.74633 20.1359 6.35303V14.6564V14.6564Z" fill="white"/>
</svg>
