<svg width="21" height="21" viewBox="0 0 21 21" fill="none" xmlns="http://www.w3.org/2000/svg">
<path d="M14.5176 0.596191H6.13764C2.49764 0.596191 0.327637 2.76619 0.327637 6.40619V14.7762C0.327637 18.4262 2.49764 20.5962 6.13764 20.5962H14.5076C18.1476 20.5962 20.3176 18.4262 20.3176 14.7862V6.40619C20.3276 2.76619 18.1576 0.596191 14.5176 0.596191ZM10.3276 14.4762C8.18764 14.4762 6.44764 12.7362 6.44764 10.5962C6.44764 8.45619 8.18764 6.71619 10.3276 6.71619C12.4676 6.71619 14.2076 8.45619 14.2076 10.5962C14.2076 12.7362 12.4676 14.4762 10.3276 14.4762ZM16.2476 5.47619C16.1976 5.59619 16.1276 5.70619 16.0376 5.80619C15.9376 5.89619 15.8276 5.96619 15.7076 6.01619C15.5876 6.06619 15.4576 6.09619 15.3276 6.09619C15.0576 6.09619 14.8076 5.99619 14.6176 5.80619C14.5276 5.70619 14.4576 5.59619 14.4076 5.47619C14.3576 5.35619 14.3276 5.22619 14.3276 5.09619C14.3276 4.96619 14.3576 4.83619 14.4076 4.71619C14.4576 4.58619 14.5276 4.48619 14.6176 4.38619C14.8476 4.15619 15.1976 4.04619 15.5176 4.11619C15.5876 4.12619 15.6476 4.14619 15.7076 4.17619C15.7676 4.19619 15.8276 4.22619 15.8876 4.26619C15.9376 4.29619 15.9876 4.34619 16.0376 4.38619C16.1276 4.48619 16.1976 4.58619 16.2476 4.71619C16.2976 4.83619 16.3276 4.96619 16.3276 5.09619C16.3276 5.22619 16.2976 5.35619 16.2476 5.47619Z" fill="white"/>
</svg>
