<svg width="223" height="157" viewBox="0 0 223 157" fill="none" xmlns="http://www.w3.org/2000/svg">
<path d="M1.71219 99.3944L14.1867 33.3528H30.8194L43.1309 99.3944H29.678L27.4766 85.4523H17.7742L15.4912 99.3944H1.71219ZM19.0787 76.7283H26.0905L22.5846 50.9639L19.0787 76.7283Z" fill="url(#paint0_radial_14_192)"/>
<path d="M49.0649 114.886V52.2684H62.3548V55.6928C63.9311 54.2796 65.6161 53.2196 67.4098 52.513C69.2035 51.8064 70.9157 51.4531 72.5464 51.4531C74.3401 51.4531 75.8621 51.8064 77.1122 52.513C78.4168 53.2196 79.4767 54.2252 80.292 55.5297C81.1073 56.7799 81.7052 58.2475 82.0857 59.9325C82.4662 61.6175 82.6565 63.4112 82.6565 65.3137V85.6154C82.6565 88.5505 82.2488 91.1052 81.4335 93.2794C80.6725 95.4537 79.531 97.1658 78.0091 98.416C76.4871 99.6118 74.6119 100.21 72.3833 100.21C70.6983 100.21 68.9861 99.8293 67.2468 99.0683C65.5617 98.2529 63.9311 97.1658 62.3548 95.807V114.886H49.0649ZM65.8607 91.6488C66.7304 91.6488 67.4098 91.4042 67.899 90.915C68.3882 90.4258 68.7415 89.8007 68.9589 89.0397C69.2307 88.2244 69.3666 87.3275 69.3666 86.3492V64.3353C69.3666 63.4112 69.2579 62.5959 69.0405 61.8893C68.8231 61.1283 68.4697 60.5304 67.9806 60.0956C67.4914 59.6607 66.8663 59.4433 66.1053 59.4433C65.3987 59.4433 64.7192 59.6064 64.067 59.9325C63.4691 60.2043 62.8983 60.5848 62.3548 61.074V90.4258C62.9527 90.8063 63.5234 91.1052 64.067 91.3227C64.6649 91.5401 65.2628 91.6488 65.8607 91.6488ZM90.2295 114.886V52.2684H103.519V55.6928C105.096 54.2796 106.781 53.2196 108.574 52.513C110.368 51.8064 112.08 51.4531 113.711 51.4531C115.505 51.4531 117.027 51.8064 118.277 52.513C119.581 53.2196 120.641 54.2252 121.457 55.5297C122.272 56.7799 122.87 58.2475 123.25 59.9325C123.631 61.6175 123.821 63.4112 123.821 65.3137V85.6154C123.821 88.5505 123.413 91.1052 122.598 93.2794C121.837 95.4537 120.696 97.1658 119.174 98.416C117.652 99.6118 115.776 100.21 113.548 100.21C111.863 100.21 110.151 99.8293 108.411 99.0683C106.726 98.2529 105.096 97.1658 103.519 95.807V114.886H90.2295ZM107.025 91.6488C107.895 91.6488 108.574 91.4042 109.064 90.915C109.553 90.4258 109.906 89.8007 110.123 89.0397C110.395 88.2244 110.531 87.3275 110.531 86.3492V64.3353C110.531 63.4112 110.422 62.5959 110.205 61.8893C109.988 61.1283 109.634 60.5304 109.145 60.0956C108.656 59.6607 108.031 59.4433 107.27 59.4433C106.563 59.4433 105.884 59.6064 105.232 59.9325C104.634 60.2043 104.063 60.5848 103.519 61.074V90.4258C104.117 90.8063 104.688 91.1052 105.232 91.3227C105.829 91.5401 106.427 91.6488 107.025 91.6488ZM131.965 99.3944V33.3528H145.173V99.3944H131.965ZM155.072 113.092V103.879C156.757 103.879 158.143 103.77 159.23 103.553C160.372 103.335 161.214 102.927 161.758 102.33C162.356 101.732 162.655 100.916 162.655 99.8836C162.655 98.9596 162.492 97.8453 162.166 96.5408C161.839 95.1819 161.432 93.6599 160.943 91.9749L149.854 52.2684H162.329L168.281 79.5004L172.765 52.2684H185.321L174.477 100.536C173.77 103.797 172.656 106.325 171.134 108.118C169.612 109.967 167.737 111.244 165.508 111.95C163.334 112.711 160.861 113.092 158.089 113.092H155.072Z" fill="white"/>
<path d="M77.8027 43.2308V17.7925H74.8132V11.8135H77.8027V9.47618C77.8027 7.6281 77.9839 6.01556 78.3463 4.63856C78.7449 3.26156 79.5421 2.19258 80.7379 1.4316C81.97 0.670631 83.8543 0.290145 86.3909 0.290145C87.0794 0.290145 87.7497 0.308263 88.402 0.3445C89.0905 0.380736 89.8334 0.45321 90.6306 0.561921V7.1389C90.3769 7.06643 90.0689 7.01207 89.7065 6.97584C89.3804 6.90336 89.0543 6.86713 88.7281 6.86713C88.0759 6.86713 87.5686 7.06643 87.2062 7.46503C86.8438 7.8274 86.6626 8.44343 86.6626 9.31311V11.8135H90.6306V17.7925H86.6626V43.2308H77.8027ZM104.665 43.7743C102.418 43.7743 100.461 43.3938 98.7945 42.6329C97.1638 41.8719 95.8955 40.7304 94.9896 39.2085C94.1199 37.6865 93.6851 35.7841 93.6851 33.5012V21.543C93.6851 19.2601 94.1199 17.3577 94.9896 15.8357C95.8955 14.3138 97.1638 13.1723 98.7945 12.4114C100.461 11.6504 102.418 11.2699 104.665 11.2699C106.912 11.2699 108.85 11.6504 110.481 12.4114C112.148 13.1723 113.434 14.3138 114.34 15.8357C115.246 17.3577 115.699 19.2601 115.699 21.543V33.5012C115.699 35.7841 115.246 37.6865 114.34 39.2085C113.434 40.7304 112.148 41.8719 110.481 42.6329C108.85 43.3938 106.912 43.7743 104.665 43.7743ZM104.719 37.904C105.299 37.904 105.752 37.759 106.078 37.4691C106.404 37.143 106.622 36.7081 106.73 36.1646C106.875 35.5848 106.948 34.8963 106.948 34.0991V20.9451C106.948 20.1479 106.875 19.4775 106.73 18.934C106.622 18.3542 106.404 17.9194 106.078 17.6295C105.752 17.3033 105.299 17.1403 104.719 17.1403C104.139 17.1403 103.686 17.3033 103.36 17.6295C103.034 17.9194 102.799 18.3542 102.654 18.934C102.509 19.4775 102.436 20.1479 102.436 20.9451V34.0991C102.436 34.8963 102.509 35.5848 102.654 36.1646C102.799 36.7081 103.034 37.143 103.36 37.4691C103.686 37.759 104.139 37.904 104.719 37.904ZM120.721 43.2308V11.8135H129.581V17.0316C130.596 15.2197 131.61 13.8427 132.625 12.9006C133.64 11.9222 134.872 11.433 136.321 11.433C136.611 11.433 136.865 11.4511 137.082 11.4873C137.3 11.4873 137.499 11.5236 137.68 11.596V20.4016C137.282 20.2204 136.829 20.0754 136.321 19.9667C135.85 19.8218 135.343 19.7493 134.799 19.7493C133.785 19.7493 132.842 20.0211 131.973 20.5646C131.103 21.1082 130.306 21.8511 129.581 22.7932V43.2308H120.721Z" fill="white"/>
<path d="M107.453 139.901V135.655C108.065 135.655 108.586 135.621 109.016 135.553C109.446 135.485 109.786 135.36 110.035 135.179C110.284 134.975 110.466 134.692 110.579 134.33C110.692 133.945 110.749 133.458 110.749 132.869V111.67H116.83V133.141C116.83 134.635 116.637 135.892 116.252 136.912C115.89 137.908 115.244 138.656 114.316 139.154C113.387 139.652 112.085 139.901 110.409 139.901H107.453ZM127.043 139.527C125.639 139.527 124.416 139.29 123.374 138.814C122.355 138.338 121.562 137.625 120.996 136.674C120.452 135.723 120.18 134.534 120.18 133.107V125.633C120.18 124.206 120.452 123.017 120.996 122.066C121.562 121.115 122.355 120.401 123.374 119.926C124.416 119.45 125.639 119.212 127.043 119.212C128.447 119.212 129.659 119.45 130.678 119.926C131.72 120.401 132.524 121.115 133.09 122.066C133.656 123.017 133.939 124.206 133.939 125.633V133.107C133.939 134.534 133.656 135.723 133.09 136.674C132.524 137.625 131.72 138.338 130.678 138.814C129.659 139.29 128.447 139.527 127.043 139.527ZM127.077 135.858C127.439 135.858 127.722 135.768 127.926 135.587C128.13 135.383 128.266 135.111 128.334 134.771C128.424 134.409 128.47 133.979 128.47 133.48V125.259C128.47 124.761 128.424 124.342 128.334 124.002C128.266 123.64 128.13 123.368 127.926 123.187C127.722 122.983 127.439 122.881 127.077 122.881C126.714 122.881 126.431 122.983 126.227 123.187C126.024 123.368 125.876 123.64 125.786 124.002C125.695 124.342 125.65 124.761 125.65 125.259V133.48C125.65 133.979 125.695 134.409 125.786 134.771C125.876 135.111 126.024 135.383 126.227 135.587C126.431 135.768 126.714 135.858 127.077 135.858ZM146.76 139.527C146.035 139.527 145.311 139.369 144.586 139.052C143.884 138.712 143.204 138.259 142.548 137.693V139.188H137.01V111.67H142.548V120.979C143.227 120.39 143.929 119.948 144.654 119.654C145.401 119.359 146.126 119.212 146.828 119.212C147.575 119.212 148.21 119.359 148.73 119.654C149.274 119.948 149.716 120.367 150.055 120.911C150.395 121.432 150.644 122.043 150.803 122.745C150.961 123.447 151.041 124.195 151.041 124.987V133.446C151.041 134.669 150.871 135.734 150.531 136.64C150.214 137.546 149.738 138.259 149.104 138.78C148.47 139.278 147.689 139.527 146.76 139.527ZM144.076 135.96C144.439 135.96 144.722 135.858 144.926 135.655C145.129 135.451 145.277 135.19 145.367 134.873C145.458 134.534 145.503 134.16 145.503 133.752V124.58C145.503 124.195 145.458 123.855 145.367 123.561C145.277 123.244 145.129 122.994 144.926 122.813C144.744 122.632 144.484 122.541 144.144 122.541C143.85 122.541 143.567 122.609 143.295 122.745C143.046 122.859 142.797 123.006 142.548 123.187V135.417C142.797 135.575 143.046 135.711 143.295 135.825C143.567 135.915 143.827 135.96 144.076 135.96Z" fill="white"/>
<path d="M184.233 126.908L192.665 46.584L213.973 50.5166L191.599 128.267L184.233 126.908ZM172.656 152.79L176.346 132.797L196.602 136.535L192.912 156.529L172.656 152.79Z" fill="white"/>
<defs>
<radialGradient id="paint0_radial_14_192" cx="0" cy="0" r="1" gradientUnits="userSpaceOnUse" gradientTransform="translate(93.423 78.3664) rotate(90) scale(33.972 93.423)">
<stop offset="0.36"/>
<stop offset="1" stop-color="#FF4915"/>
</radialGradient>
</defs>
</svg>
