<svg width="21" height="19" viewBox="0 0 21 19" fill="none" xmlns="http://www.w3.org/2000/svg">
<path d="M19.9862 4.09493L17.2087 6.87241C16.6476 13.3767 11.1624 18.4319 4.59766 18.4319C3.24886 18.4319 2.13694 18.2183 1.29255 17.7965C0.611651 17.4556 0.332975 17.0906 0.263306 16.9865C0.201183 16.8934 0.160918 16.7874 0.145518 16.6764C0.130118 16.5655 0.139981 16.4526 0.174372 16.346C0.208762 16.2394 0.266789 16.142 0.344118 16.061C0.421447 15.9801 0.516078 15.9176 0.620941 15.8783C0.645093 15.869 2.87265 15.0135 4.2874 13.3851C3.50281 12.74 2.81791 11.9825 2.25492 11.1371C1.10305 9.42695 -0.186293 6.45625 0.211286 2.01693C0.223888 1.87587 0.276535 1.74135 0.363028 1.62921C0.44952 1.51706 0.566256 1.43197 0.699489 1.38395C0.832721 1.33593 0.976901 1.32698 1.11505 1.35815C1.2532 1.38932 1.37957 1.45932 1.47927 1.5599C1.51178 1.59242 4.57072 4.63464 8.31056 5.62115V5.05544C8.30914 4.46222 8.42642 3.87472 8.65551 3.32752C8.8846 2.78033 9.22086 2.2845 9.64449 1.86924C10.0559 1.4584 10.5454 1.13413 11.0842 0.915552C11.623 0.696979 12.2001 0.588532 12.7815 0.596612C13.5613 0.604304 14.326 0.813657 15.001 1.20432C15.676 1.59498 16.2385 2.15365 16.6337 2.82603H19.4604C19.6075 2.82591 19.7513 2.86943 19.8736 2.95108C19.9959 3.03273 20.0912 3.14883 20.1475 3.2847C20.2038 3.42056 20.2185 3.57007 20.1898 3.7143C20.1611 3.85854 20.0902 3.991 19.9862 4.09493Z" fill="white"/>
</svg>
